<?xml version="1.0" encoding="iso-8859-1"?>
<!-- Generator: Adobe Illustrator 19.0.0, SVG Export Plug-In . SVG Version: 6.00 Build 0)  -->
<svg version="1.1" id="Layer_1" xmlns="http://www.w3.org/2000/svg" xmlns:xlink="http://www.w3.org/1999/xlink" x="0px" y="0px"
	 viewBox="0 0 512 512" style="enable-background:new 0 0 512 512;" xml:space="preserve">
<path style="fill:#FF507D;" d="M32.221,271.719C41.412,156.271,138.229,65.123,256,65.123s214.588,91.148,223.779,206.596h18.012
	C488.557,146.358,383.679,47.158,256,47.158s-232.557,99.2-241.79,224.561H32.221z"/>
<path style="fill:#D23C69;" d="M321.256,56.14H190.744c-21.913,6.134-42.569,15.27-61.516,26.947h38.938
	C195.162,71.56,224.833,65.123,256,65.123s60.838,6.437,87.834,17.965h38.938C363.825,71.411,343.168,62.274,321.256,56.14z"/>
<g>
	<path style="fill:#707487;" d="M35.93,312.14H8.982c-4.965,0-8.982-4.022-8.982-8.982v-26.947c0-4.961,4.017-8.982,8.982-8.982
		H35.93c4.965,0,8.982,4.022,8.982,8.982v26.947C44.912,308.118,40.895,312.14,35.93,312.14z M17.965,294.175h8.982v-8.982h-8.982
		V294.175z"/>
	<path style="fill:#707487;" d="M494.035,285.193v8.982h-8.982v-8.982H494.035 M503.018,267.228H476.07
		c-4.961,0-8.982,4.022-8.982,8.982v26.947c0,4.961,4.022,8.982,8.982,8.982h26.947c4.961,0,8.982-4.022,8.982-8.982v-26.947
		C512,271.25,507.978,267.228,503.018,267.228L503.018,267.228z"/>
</g>
<rect x="22.456" y="47.158" style="fill:#464655;" width="467.088" height="17.965"/>
<g>
	<path style="fill:#5B5D6E;" d="M269.474,78.596h-26.947c-4.961,0-8.982-4.022-8.982-8.982V42.667c0-4.961,4.022-8.982,8.982-8.982
		h26.947c4.961,0,8.982,4.022,8.982,8.982v26.947C278.456,74.575,274.434,78.596,269.474,78.596z"/>
	<circle style="fill:#5B5D6E;" cx="22.456" cy="56.14" r="22.456"/>
	<circle style="fill:#5B5D6E;" cx="489.544" cy="56.14" r="22.456"/>
</g>
<path style="fill:#C7CFE2;" d="M276.134,101.053h-2.169c-4.961,0-8.982,4.022-8.982,8.982v179.584c0,3.379,1.905,6.463,4.935,7.958
	c12.068,5.96,19.792,19.324,16.922,34.259c-2.273,11.825-11.609,21.638-23.342,24.349c-20.619,4.764-38.936-10.765-38.936-30.572
	c0-12.376,7.197-22.975,17.604-28.077c3.004-1.472,4.852-4.572,4.852-7.917V110.035c0-4.961-4.022-8.982-8.982-8.982h-2.169
	c-4.029,0-7.563,2.681-8.65,6.561l-58.995,210.694c-1.295,4.624-0.712,9.529,1.67,13.699c8.294,14.516,29.237,52.531,50.179,101.397
	h71.86c20.943-48.867,41.885-86.882,50.178-101.397c2.383-4.169,2.964-9.075,1.67-13.699l-58.993-210.694
	C283.699,103.734,280.163,101.053,276.134,101.053z"/>
<path style="fill:#AFB9D2;" d="M264.982,110.035v179.584c0,3.379,1.905,6.463,4.935,7.958c8.99,4.44,15.554,12.994,17.139,23.241
	l-13.091-219.766C269.004,101.053,264.982,105.075,264.982,110.035z"/>
<path style="fill:#FF507D;" d="M300.912,478.316h-89.825c-4.961,0-8.982-4.022-8.982-8.982v-26.947c0-4.961,4.022-8.982,8.982-8.982
	h89.825c4.961,0,8.982,4.022,8.982,8.982v26.947C309.895,474.294,305.873,478.316,300.912,478.316z"/>
<path style="fill:#D23C69;" d="M238.035,469.333v-26.947c0-4.961,4.022-8.982,8.982-8.982h-35.93c-4.961,0-8.982,4.022-8.982,8.982
	v26.947c0,4.961,4.022,8.982,8.982,8.982h35.93C242.057,478.316,238.035,474.294,238.035,469.333z"/>
<path style="fill:#AFB9D2;" d="M240.06,409.131c-8.232-26.434-19.531-57.838-25.283-73.539c-2.433-6.641-3.24-13.713-2.397-20.735
	l25.656-213.804h-2.169c-4.029,0-7.564,2.681-8.65,6.561l-58.995,210.694c-1.295,4.624-0.712,9.53,1.671,13.699
	c8.293,14.516,29.237,52.532,50.178,101.397h71.86c2.644-6.171,5.288-12.166,7.908-17.965h-51.213
	C244.682,415.439,241.232,412.895,240.06,409.131z"/>
<g>
</g>
<g>
</g>
<g>
</g>
<g>
</g>
<g>
</g>
<g>
</g>
<g>
</g>
<g>
</g>
<g>
</g>
<g>
</g>
<g>
</g>
<g>
</g>
<g>
</g>
<g>
</g>
<g>
</g>
</svg>
