<?xml version="1.0" encoding="iso-8859-1"?>
<!-- Generator: Adobe Illustrator 16.0.0, SVG Export Plug-In . SVG Version: 6.00 Build 0)  -->
<!DOCTYPE svg PUBLIC "-//W3C//DTD SVG 1.1//EN" "http://www.w3.org/Graphics/SVG/1.1/DTD/svg11.dtd">
<svg version="1.1" id="Capa_1" xmlns="http://www.w3.org/2000/svg" xmlns:xlink="http://www.w3.org/1999/xlink" x="0px" y="0px"
	 width="568.969px" height="568.969px" viewBox="0 0 568.969 568.969" style="enable-background:new 0 0 568.969 568.969;"
	 xml:space="preserve">
<g>
	<g>
		<path d="M398.039,0H170.93c-19.766,0-35.859,16.094-35.859,35.859v497.25c0,19.766,16.094,35.859,35.859,35.859h227.109
			c19.766,0,35.859-16.094,35.859-35.859V35.859C433.898,16.094,417.814,0,398.039,0z M398.039,554.625H170.93
			c-10.691,0-19.527-7.87-21.171-18.121c5.154,10.041,15.501,16.983,27.54,16.983H391.67c12.04,0,22.387-6.952,27.54-16.983
			C417.565,546.755,408.729,554.625,398.039,554.625z M261.419,26.564c0.344,0.937,1.243,1.549,2.228,1.549h39.054
			c1.052,0,1.979-0.688,2.285-1.693l1.597-5.24c0.096-0.325-0.058-0.612-0.096-0.937h85.174c14.506,0,26.297,11.791,26.297,26.297
			v475.869c0,14.506-11.791,26.297-26.297,26.297H177.298c-14.506,0-26.297-11.791-26.297-26.297V46.55
			c0-14.506,11.791-26.297,26.297-26.297h82.17c-0.038,0.363-0.172,0.708-0.029,1.071L261.419,26.564z M264.135,20.253h37.734
			l-0.947,3.079h-35.629L264.135,20.253z M391.67,15.472H177.298c-12.039,0-22.386,6.952-27.54,16.983
			c1.645-10.242,10.48-18.121,21.171-18.121h227.109c10.69,0,19.526,7.87,21.171,18.121C414.057,22.424,403.71,15.472,391.67,15.472
			z"/>
		<path d="M160.172,60.961v414.773c0,1.979,1.606,3.586,3.586,3.586h238.47c1.979,0,3.586-1.606,3.586-3.586V60.961
			c0-1.979-1.606-3.586-3.586-3.586h-238.47C161.778,57.375,160.172,58.981,160.172,60.961z M167.344,64.547h231.298v407.602
			H167.344V64.547z"/>
		<path d="M291.063,500.243h-13.751c-6.598,0-11.953,5.364-11.953,11.953v4.188c0,6.588,5.355,11.953,11.953,11.953h13.751
			c6.589,0,11.953-5.365,11.953-11.953v-4.188C303.017,505.598,297.652,500.243,291.063,500.243z M298.235,516.375
			c0,3.949-3.223,7.172-7.172,7.172h-13.751c-3.949,0-7.172-3.223-7.172-7.172v-4.188c0-3.949,3.223-7.172,7.172-7.172h13.751
			c3.949,0,7.172,3.223,7.172,7.172V516.375z"/>
		<circle cx="341.658" cy="35.668" r="6.971"/>
		<path d="M361.176,510.943h-4.791v-1.798l-5.164,2.974l5.164,2.984v-1.76h4.791c5.947,0,8.367,0.268,8.367,2.983
			c0,2.85-1.195,2.983-4.982,2.983h-6.177c-0.66,0-1.195,0.535-1.195,1.195s0.535,1.195,1.195,1.195h6.177
			c3.29,0,7.373,0,7.373-5.374S366.454,510.943,361.176,510.943z"/>
		<path d="M212.173,506.516h-11.657c-0.66,0-1.195,0.536-1.195,1.195v11.36c0,0.66,0.535,1.195,1.195,1.195h11.657
			c0.66,0,1.195-0.535,1.195-1.195v-11.36C213.368,507.052,212.833,506.516,212.173,506.516z M210.978,517.866h-9.266v-4.781h4.188
			v-4.188h5.078V517.866z"/>
	</g>
</g>
<g>
</g>
<g>
</g>
<g>
</g>
<g>
</g>
<g>
</g>
<g>
</g>
<g>
</g>
<g>
</g>
<g>
</g>
<g>
</g>
<g>
</g>
<g>
</g>
<g>
</g>
<g>
</g>
<g>
</g>
</svg>
