<?xml version="1.0" encoding="iso-8859-1"?>
<!-- Generator: Adobe Illustrator 19.0.0, SVG Export Plug-In . SVG Version: 6.00 Build 0)  -->
<svg version="1.1" id="Capa_1" xmlns="http://www.w3.org/2000/svg" xmlns:xlink="http://www.w3.org/1999/xlink" x="0px" y="0px"
	 viewBox="0 0 463 463" style="enable-background:new 0 0 463 463;" xml:space="preserve">
<g>
	<path d="M263.5,204c-39.425,0-71.5,32.075-71.5,71.5s32.075,71.5,71.5,71.5s71.5-32.075,71.5-71.5S302.925,204,263.5,204z
		 M263.5,332c-31.154,0-56.5-25.346-56.5-56.5s25.346-56.5,56.5-56.5s56.5,25.346,56.5,56.5S294.654,332,263.5,332z"/>
	<path d="M263.5,228c-26.191,0-47.5,21.309-47.5,47.5s21.309,47.5,47.5,47.5s47.5-21.309,47.5-47.5S289.691,228,263.5,228z
		 M263.5,308c-17.92,0-32.5-14.58-32.5-32.5s14.58-32.5,32.5-32.5s32.5,14.58,32.5,32.5S281.42,308,263.5,308z"/>
	<path d="M431.476,122.956l-74.452-26.59c-4.807-1.717-8.49-5.479-10.104-10.321l-6.835-20.506
		C336.751,55.537,328.759,48.105,319,45.271V35.5c0-8.547-6.953-15.5-15.5-15.5h-80c-8.547,0-15.5,6.953-15.5,15.5v9.771
		c-9.759,2.834-17.751,10.266-21.085,20.268l-6.257,18.771c-1.812,5.436-6.409,9.602-11.996,10.872l-73.926,16.801
		C93.033,100.687,83.263,92,71.5,92h-16C42.542,92,32,102.542,32,115.5v11.033c-19.074,6.531-32,24.316-32,44.896V403.5
		C0,425.28,17.72,443,39.5,443h384c21.78,0,39.5-17.72,39.5-39.5V167.689C463,147.667,450.332,129.69,431.476,122.956z M111,396
		V195.5c0-2.945-0.415-5.794-1.175-8.5h78.016l-1.726,19.852C169.878,225.134,160,249.183,160,275.5
		c0,57.07,46.43,103.5,103.5,103.5c46.255,0,85.517-30.501,98.738-72.446c1.729,0.291,3.485,0.446,5.262,0.446
		c17.369,0,31.5-14.131,31.5-31.5S384.869,244,367.5,244c-1.779,0-3.535,0.155-5.262,0.446
		c-4.431-14.057-11.789-26.825-21.353-37.594L339.159,187H448v209H111z M365.696,259.103c0.596-0.064,1.196-0.103,1.804-0.103
		c9.098,0,16.5,7.402,16.5,16.5s-7.402,16.5-16.5,16.5c-0.607,0-1.207-0.042-1.803-0.106C366.55,286.552,367,281.078,367,275.5
		C367,269.921,366.55,264.445,365.696,259.103z M352,275.5c0,48.799-39.701,88.5-88.5,88.5S175,324.299,175,275.5
		s39.701-88.5,88.5-88.5S352,226.701,352,275.5z M263.5,172c-22.807,0-43.91,7.421-61.034,19.967l3.235-37.203
		c0.385-4.426,4.025-7.764,8.468-7.764h98.662c4.442,0,8.083,3.338,8.468,7.764l3.235,37.203C307.41,179.421,286.307,172,263.5,172z
		 M223.5,35h80c0.276,0,0.5,0.224,0.5,0.5V44h-81v-8.5C223,35.224,223.224,35,223.5,35z M55.5,107h16
		c4.631,0,8.402,3.724,8.492,8.333L47,122.832V115.5C47,110.813,50.813,107,55.5,107z M40.297,139.737l131.688-29.929
		c10.667-2.425,19.443-10.377,22.902-20.755l6.257-18.771C203.394,63.534,209.685,59,216.798,59h93.403
		c7.113,0,13.404,4.534,15.653,11.282l6.835,20.506c3.082,9.245,10.112,16.426,19.289,19.704l74.452,26.59
		C439.332,141.689,448,153.99,448,167.689V172H337.854l-1.612-18.536C335.178,141.228,325.113,132,312.831,132h-98.662
		c-12.282,0-22.347,9.228-23.412,21.464L189.146,172h-88.699c-5.571-4.971-12.91-8-20.946-8H15.849
		C18.607,152.073,27.891,142.557,40.297,139.737z M15,403.5V179h64.5c9.098,0,16.5,7.402,16.5,16.5V428H39.5
		C25.991,428,15,417.009,15,403.5z M423.5,428H111v-17h335.821C443.645,420.851,434.394,428,423.5,428z"/>
	<path d="M71.5,196c-4.142,0-7.5,3.358-7.5,7.5v200c0,4.142,3.358,7.5,7.5,7.5s7.5-3.358,7.5-7.5v-200
		C79,199.358,75.642,196,71.5,196z"/>
</g>
<g>
</g>
<g>
</g>
<g>
</g>
<g>
</g>
<g>
</g>
<g>
</g>
<g>
</g>
<g>
</g>
<g>
</g>
<g>
</g>
<g>
</g>
<g>
</g>
<g>
</g>
<g>
</g>
<g>
</g>
</svg>
